<svg width="411" height="278" viewBox="0 0 411 278" fill="none" xmlns="http://www.w3.org/2000/svg">
<path d="M263.232 155.999L58.1955 226.785C54.9654 227.9 51.4301 226.179 50.3149 222.949C49.1998 219.719 50.9205 216.184 54.1506 215.068L259.187 144.283C262.417 143.167 265.952 144.888 267.068 148.118C268.183 151.348 266.462 154.884 263.232 155.999Z" fill="#F7F8F9"/>
<path d="M310.959 163.487L25.2539 262.122L25.7595 263.587L311.464 164.951L310.959 163.487Z" fill="#F7F8F9"/>
<path d="M29.9102 273.558C36.6969 271.215 40.2992 263.814 37.9562 257.028C35.6132 250.241 28.2122 246.639 21.4255 248.982C14.6389 251.325 11.0366 258.726 13.3796 265.512C15.7226 272.299 23.1236 275.901 29.9102 273.558Z" fill="#F7F8F9"/>
<path d="M58.5831 234.038C65.3697 231.695 68.972 224.294 66.629 217.507C64.286 210.721 56.885 207.118 50.0984 209.461C43.3117 211.804 39.7094 219.205 42.0524 225.992C44.3954 232.779 51.7964 236.381 58.5831 234.038Z" fill="#F7F8F9"/>
<path d="M365.117 60.0043L84.8027 173.053L85.3822 174.49L365.697 61.4412L365.117 60.0043Z" fill="#3F3D56"/>
<path d="M317.072 54.9553L115.904 136.085C112.734 137.363 109.116 135.824 107.838 132.655C106.56 129.486 108.098 125.867 111.268 124.589L312.436 43.46C315.605 42.1819 319.223 43.7205 320.501 46.8897C321.779 50.0589 320.241 53.6772 317.072 54.9553Z" fill="#4D7DFF"/>
<path d="M87.2537 185.359C93.9123 182.674 97.1332 175.099 94.4479 168.44C91.7625 161.782 84.1877 158.561 77.5291 161.246C70.8705 163.931 67.6496 171.506 70.3349 178.165C73.0203 184.823 80.595 188.044 87.2537 185.359Z" fill="#4D7DFF"/>
<path d="M113.878 144.43C120.536 141.745 123.757 134.17 121.072 127.512C118.387 120.853 110.812 117.632 104.153 120.317C97.4945 123.003 94.2736 130.578 96.9589 137.236C99.6443 143.895 107.219 147.116 113.878 144.43Z" fill="#4D7DFF"/>
<g clip-path="url(#clip0_696_132)">
<g clip-path="url(#clip1_696_132)">
<path d="M301.335 222.677L301.309 222.675L261.251 218.966L224.825 222.338C223.874 222.426 222.927 222.134 222.192 221.526C221.457 220.918 220.994 220.044 220.906 219.096C220.896 218.986 220.891 218.875 220.891 218.764V132.415C220.887 131.519 221.221 130.655 221.826 129.993C222.431 129.331 223.264 128.92 224.159 128.841L261.251 125.406L261.277 125.409L301.335 129.118L337.761 125.745C338.712 125.657 339.659 125.949 340.394 126.557C341.129 127.165 341.592 128.039 341.68 128.987C341.69 129.098 341.695 129.208 341.695 129.319V215.668C341.699 216.564 341.365 217.428 340.76 218.09C340.155 218.752 339.322 219.163 338.427 219.243L301.335 222.677Z" fill="#3F3D56"/>
<path d="M276.73 157.351C268.976 151.722 260.818 146.385 252.483 141.488L252.065 141.242V157.851H277.419L276.73 157.351ZM252.619 157.299V142.21C260.547 146.885 268.311 151.957 275.715 157.299L252.619 157.299ZM315.974 191.485C312.62 188.01 309.18 184.614 305.653 181.297C304.68 180.382 303.702 179.474 302.718 178.573C296.71 173.073 290.505 167.841 284.102 162.879L284.027 162.821H252.065V191.953H316.425L315.974 191.485ZM252.619 191.401V163.374H283.838C290.011 168.16 296.018 173.215 301.857 178.537C302.871 179.461 303.878 180.392 304.878 181.33C308.375 184.605 311.789 187.962 315.122 191.401H252.619ZM315.974 191.485C312.62 188.01 309.18 184.614 305.653 181.297C304.68 180.382 303.702 179.474 302.718 178.573C296.71 173.073 290.505 167.841 284.102 162.879L284.027 162.821H252.065V191.953H316.425L315.974 191.485ZM252.619 191.401V163.374H283.838C290.011 168.16 296.018 173.215 301.857 178.537C302.871 179.461 303.878 180.392 304.878 181.33C308.375 184.605 311.789 187.962 315.122 191.401H252.619ZM276.73 157.351C268.976 151.722 260.818 146.385 252.483 141.488L252.065 141.242V157.851H277.419L276.73 157.351ZM252.619 157.299V142.21C260.547 146.885 268.311 151.957 275.715 157.299L252.619 157.299ZM276.73 157.351C268.976 151.722 260.818 146.385 252.483 141.488L252.065 141.242V157.851H277.419L276.73 157.351ZM252.619 157.299V142.21C260.547 146.885 268.311 151.957 275.715 157.299L252.619 157.299ZM315.974 191.485C312.62 188.01 309.18 184.614 305.653 181.297C304.68 180.382 303.702 179.474 302.718 178.573C296.71 173.073 290.505 167.841 284.102 162.879L284.027 162.821H252.065V191.953H316.425L315.974 191.485ZM252.619 191.401V163.374H283.838C290.011 168.16 296.018 173.215 301.857 178.537C302.871 179.461 303.878 180.392 304.878 181.33C308.375 184.605 311.789 187.962 315.122 191.401H252.619ZM224.641 196.923V197.476H246.524V205.483H224.641V206.036H247.078V196.923H224.641ZM252.065 211.006V216.602L252.619 216.551V211.558H337.945V211.006L252.065 211.006ZM337.945 197.476V196.923H252.065V206.036H337.945V205.483H252.619V197.476L337.945 197.476ZM286.202 157.299C275.573 149.126 264.347 141.754 252.619 135.243V129.651L252.065 129.702V135.337L252.491 135.805C264.172 142.298 275.352 149.648 285.939 157.793L286.014 157.851H337.945V157.299L286.202 157.299ZM246.524 157.299H224.641V157.851H247.078V130.164L246.524 130.215L246.524 157.299ZM337.945 162.821H292.291L292.888 163.31C298.509 167.92 304.028 172.809 309.445 177.978C310.215 178.713 310.983 179.453 311.747 180.2C315.554 183.907 319.286 187.735 322.944 191.684L323.401 191.953H337.945V191.401H323.435C319.817 187.491 316.121 183.694 312.346 180.01C311.591 179.273 310.833 178.541 310.073 177.814C304.773 172.745 299.36 167.932 293.834 163.374H337.945V162.821ZM224.641 211.006V211.558H246.524V217.114L247.078 217.063V211.006H224.641ZM224.641 162.821V163.374H246.524V191.401H224.641V191.953H247.078V162.821H224.641ZM276.73 157.351C268.976 151.722 260.818 146.385 252.483 141.488L252.065 141.242V157.851H277.419L276.73 157.351ZM252.619 157.299V142.21C260.547 146.885 268.311 151.957 275.715 157.299L252.619 157.299ZM315.974 191.485C312.62 188.01 309.18 184.614 305.653 181.297C304.68 180.382 303.702 179.474 302.718 178.573C296.71 173.073 290.505 167.841 284.102 162.879L284.027 162.821H252.065V191.953H316.425L315.974 191.485ZM252.619 191.401V163.374H283.838C290.011 168.16 296.018 173.215 301.857 178.537C302.871 179.461 303.878 180.392 304.878 181.33C308.375 184.605 311.789 187.962 315.122 191.401H252.619ZM276.73 157.351C268.976 151.722 260.818 146.385 252.483 141.488L252.065 141.242V157.851H277.419L276.73 157.351ZM252.619 157.299V142.21C260.547 146.885 268.311 151.957 275.715 157.299L252.619 157.299ZM315.974 191.485C312.62 188.01 309.18 184.614 305.653 181.297C304.68 180.382 303.702 179.474 302.718 178.573C296.71 173.073 290.505 167.841 284.102 162.879L284.027 162.821H252.065V191.953H316.425L315.974 191.485ZM252.619 191.401V163.374H283.838C290.011 168.16 296.018 173.215 301.857 178.537C302.871 179.461 303.878 180.392 304.878 181.33C308.375 184.605 311.789 187.962 315.122 191.401H252.619Z" fill="white"/>
<path d="M302.872 147.196C305.668 147.196 307.935 144.937 307.935 142.15C307.935 139.362 305.668 137.103 302.872 137.103C300.075 137.103 297.809 139.362 297.809 142.15C297.809 144.937 300.075 147.196 302.872 147.196Z" fill="#FF6584"/>
<path d="M318.749 157.701H293.911C293.88 157.702 293.849 157.699 293.818 157.694L305.565 137.412C305.637 137.286 305.741 137.181 305.867 137.108C305.993 137.035 306.136 136.996 306.281 136.996C306.427 136.996 306.57 137.035 306.696 137.108C306.821 137.181 306.925 137.286 306.997 137.412L314.881 151.023L315.259 151.674L318.749 157.701Z" fill="white"/>
<path opacity="0.2" d="M318.749 157.701H310.269L314.432 151.674L314.731 151.24L314.881 151.023L315.259 151.674L318.749 157.701Z" fill="black"/>
<path d="M332.579 157.701H311.096L315.259 151.674L315.558 151.24L320.983 143.385C321.339 142.871 322.194 142.839 322.612 143.288C322.641 143.319 322.667 143.352 322.691 143.385L332.579 157.701Z" fill="white"/>
<path d="M334.173 186.292C335.588 186.292 336.735 185.148 336.735 183.738C336.735 182.327 335.588 181.184 334.173 181.184C332.758 181.184 331.61 182.327 331.61 183.738C331.61 185.148 332.758 186.292 334.173 186.292Z" fill="white"/>
<path d="M334.42 191.431H333.896L334.135 183.353L334.42 191.431Z" fill="#CBCBCB"/>
<path d="M334.181 184.884L334.744 184.107L334.173 185.076L334.111 184.969L334.181 184.884Z" fill="#CBCBCB"/>
<path d="M334.119 185.669L333.556 184.892L334.127 185.861L334.189 185.753L334.119 185.669Z" fill="#CBCBCB"/>
<path d="M326.887 183.841C328.977 183.841 330.671 182.152 330.671 180.069C330.671 177.985 328.977 176.296 326.887 176.296C324.797 176.296 323.102 177.985 323.102 180.069C323.102 182.152 324.797 183.841 326.887 183.841Z" fill="white"/>
<path d="M327.252 191.431H326.477L326.83 179.5L327.252 191.431Z" fill="#CBCBCB"/>
<path d="M326.898 181.762L327.73 180.614L326.887 182.046L326.795 181.887L326.898 181.762Z" fill="#CBCBCB"/>
<path d="M326.807 182.92L325.975 181.773L326.818 183.204L326.909 183.045L326.807 182.92Z" fill="#CBCBCB"/>
<path d="M239.019 186.292C240.434 186.292 241.581 185.148 241.581 183.738C241.581 182.327 240.434 181.184 239.019 181.184C237.603 181.184 236.456 182.327 236.456 183.738C236.456 185.148 237.603 186.292 239.019 186.292Z" fill="white"/>
<path d="M239.266 191.431H238.741L238.98 183.353L239.266 191.431Z" fill="#CBCBCB"/>
<path d="M239.026 184.884L239.59 184.107L239.019 185.076L238.957 184.969L239.026 184.884Z" fill="#CBCBCB"/>
<path d="M238.964 185.669L238.401 184.892L238.972 185.861L239.034 185.753L238.964 185.669Z" fill="#CBCBCB"/>
<path d="M231.732 183.841C233.822 183.841 235.517 182.152 235.517 180.069C235.517 177.985 233.822 176.296 231.732 176.296C229.642 176.296 227.947 177.985 227.947 180.069C227.947 182.152 229.642 183.841 231.732 183.841Z" fill="white"/>
<path d="M232.097 191.431H231.322L231.675 179.5L232.097 191.431Z" fill="#CBCBCB"/>
<path d="M231.744 181.762L232.576 180.614L231.732 182.046L231.641 181.887L231.744 181.762Z" fill="#CBCBCB"/>
<path d="M231.653 182.92L230.82 181.773L231.664 183.204L231.755 183.045L231.653 182.92Z" fill="#CBCBCB"/>
<path d="M257.637 185.41C257.637 190.499 248.39 201.833 248.39 201.833C248.39 201.833 239.144 190.499 239.144 185.41C239.144 182.967 240.118 180.624 241.852 178.896C243.586 177.168 245.938 176.198 248.39 176.198C250.842 176.198 253.194 177.168 254.928 178.896C256.662 180.624 257.637 182.967 257.637 185.41Z" fill="#4D7DFF"/>
<path d="M252.593 184.943C252.593 185.772 252.346 186.583 251.885 187.272C251.423 187.962 250.766 188.499 249.998 188.816C249.23 189.134 248.385 189.217 247.57 189.055C246.755 188.893 246.006 188.494 245.418 187.907C244.83 187.321 244.43 186.574 244.268 185.761C244.106 184.947 244.189 184.104 244.507 183.338C244.825 182.572 245.364 181.917 246.055 181.457C246.746 180.996 247.559 180.75 248.39 180.75C248.942 180.75 249.489 180.858 249.999 181.069C250.509 181.279 250.972 181.588 251.362 181.977C251.753 182.367 252.062 182.829 252.273 183.338C252.485 183.847 252.593 184.392 252.593 184.943Z" fill="white"/>
<path d="M248.39 208.542C249.783 208.542 250.912 207.415 250.912 206.026C250.912 204.637 249.783 203.51 248.39 203.51C246.997 203.51 245.868 204.637 245.868 206.026C245.868 207.415 246.997 208.542 248.39 208.542Z" fill="#4D7DFF"/>
<path d="M295.773 163.704C295.773 170.697 283.069 186.276 283.069 186.276C283.069 186.276 270.365 170.697 270.365 163.704C270.365 160.346 271.704 157.125 274.086 154.75C276.469 152.376 279.7 151.042 283.069 151.042C286.438 151.042 289.67 152.376 292.052 154.75C294.435 157.125 295.773 160.346 295.773 163.704Z" fill="#4D7DFF"/>
<path d="M288.877 163.153C288.877 164.298 288.537 165.417 287.898 166.369C287.26 167.321 286.353 168.063 285.292 168.501C284.231 168.939 283.063 169.054 281.937 168.831C280.81 168.607 279.775 168.056 278.963 167.246C278.151 166.437 277.598 165.405 277.374 164.283C277.15 163.16 277.265 161.996 277.704 160.938C278.144 159.88 278.888 158.976 279.843 158.34C280.798 157.704 281.921 157.365 283.07 157.365C283.832 157.364 284.588 157.514 285.293 157.805C285.997 158.095 286.638 158.522 287.177 159.059C287.716 159.597 288.144 160.235 288.436 160.938C288.728 161.64 288.878 162.393 288.877 163.153Z" fill="white"/>
<path d="M283.07 195.415C284.961 195.415 286.494 193.887 286.494 192.002C286.494 190.117 284.961 188.588 283.07 188.588C281.178 188.588 279.645 190.117 279.645 192.002C279.645 193.887 281.178 195.415 283.07 195.415Z" fill="#4D7DFF"/>
</g>
<path d="M321.381 128.26C321.72 128.353 322.035 128.519 322.303 128.747C322.571 128.974 322.785 129.257 322.931 129.576C323.077 129.895 323.152 130.243 323.149 130.593C323.146 130.944 323.066 131.29 322.914 131.607L326.591 135.684L324.652 138.517L319.541 132.686C319.025 132.397 318.633 131.929 318.439 131.371C318.246 130.813 318.264 130.204 318.491 129.658C318.717 129.112 319.137 128.669 319.67 128.411C320.203 128.153 320.812 128.1 321.381 128.26Z" fill="#A0616A"/>
<path d="M355.797 138.272C355.465 137.734 355.031 137.266 354.518 136.896C354.005 136.526 353.424 136.26 352.808 136.115C352.191 135.969 351.553 135.946 350.928 136.047C350.303 136.149 349.704 136.372 349.166 136.704L337.076 144.174L324.035 133.115L320.79 136.129L335.197 154.776L353.922 145.038C353.485 145.265 356.325 139.129 355.797 138.272Z" fill="#CCCCCC"/>
<path d="M352.518 235.148H349.294L347.76 222.742L352.519 222.742L352.518 235.148Z" fill="#A0616A"/>
<path d="M354.252 241.256H351.964L351.556 239.101L350.51 241.256H344.442C344.151 241.256 343.868 241.163 343.633 240.991C343.399 240.819 343.226 240.577 343.139 240.3C343.053 240.023 343.057 239.726 343.152 239.451C343.247 239.177 343.427 238.94 343.667 238.775L348.513 235.437V233.258L353.61 233.562L354.252 241.256Z" fill="#2F2E41"/>
<path d="M340.029 235.148H336.805L335.271 222.742L340.03 222.742L340.029 235.148Z" fill="#A0616A"/>
<path d="M341.763 241.256H339.476L339.067 239.101L338.021 241.256H331.953C331.662 241.256 331.379 241.163 331.145 240.991C330.91 240.819 330.737 240.577 330.651 240.3C330.564 240.023 330.569 239.726 330.663 239.451C330.758 239.177 330.939 238.94 331.178 238.775L336.024 235.437V233.258L341.121 233.562L341.763 241.256Z" fill="#2F2E41"/>
<path d="M327.78 202.392C328.397 203.315 335.109 228.697 335.109 228.697L341.061 229.374L340.355 222.988L339.275 211.687L337.603 204.143C337.603 204.143 343.508 190.737 343.881 189.669L344.147 188.903L345.991 205.605C346.211 206.201 346.306 206.836 346.272 207.47C346.217 208.514 347.266 224.21 347.266 224.21L347.77 229.839L352.87 230.545L354.938 220.806C356.666 217.642 355.676 206.399 354.969 205.353C354.263 204.306 354.544 197.018 354.544 197.018C355.446 196.702 360.826 178.401 358.135 178.509C358.307 177.534 358.443 176.663 358.443 176.663L353.772 172.905L342.083 169.874L339.133 168.461C339.133 168.461 333.866 178.177 333.918 178.66C333.991 179.272 333.851 179.891 333.52 180.411L328.202 198.166C328.202 198.166 327.157 201.46 327.78 202.392Z" fill="#2F2E41"/>
<path d="M357.148 138.858L355.289 134.919L348.959 135.162L346.894 139.26C346.894 139.26 340.994 146.29 340.803 148.576C340.563 151.451 342.559 165.541 340.563 164.628C340.563 164.628 335.857 170.138 338.642 170.138C341.426 170.138 354.023 178.026 354.849 178.913C355.676 179.8 359.366 180.376 359.056 178.524C358.747 176.672 357.148 166.656 357.148 166.656L361.476 150.908C362.721 147.507 363.109 143.694 360.293 141.41L357.148 138.858Z" fill="#CCCCCC"/>
<path d="M333.703 127.265C332.856 126.93 331.952 126.765 331.041 126.778C330.13 126.792 329.231 126.984 328.395 127.344C327.558 127.704 326.801 128.225 326.167 128.877C325.532 129.529 325.033 130.299 324.697 131.144C323.284 134.696 323.049 143.178 325.679 147.429C329.061 141.569 335.903 139.405 337.591 136.249C339.394 132.878 337.263 128.675 333.703 127.265Z" fill="#4D7DFF"/>
<path d="M330.856 135.159C332.105 135.159 333.118 134.149 333.118 132.903C333.118 131.656 332.105 130.646 330.856 130.646C329.607 130.646 328.594 131.656 328.594 132.903C328.594 134.149 329.607 135.159 330.856 135.159Z" fill="white"/>
<path d="M324.05 150.305C324.868 150.305 325.531 149.643 325.531 148.827C325.531 148.01 324.868 147.349 324.05 147.349C323.231 147.349 322.568 148.01 322.568 148.827C322.568 149.643 323.231 150.305 324.05 150.305Z" fill="#4D7DFF"/>
<path opacity="0.2" d="M333.087 131.833C333.501 132.265 333.727 132.844 333.714 133.442C333.701 134.04 333.45 134.608 333.018 135.022C332.585 135.436 332.005 135.661 331.405 135.649C330.806 135.636 330.236 135.387 329.821 134.956C330.296 135.205 330.845 135.278 331.369 135.161C331.893 135.043 332.358 134.744 332.681 134.316C333.004 133.888 333.164 133.359 333.132 132.824C333.1 132.289 332.878 131.783 332.506 131.396C332.722 131.51 332.918 131.657 333.087 131.833Z" fill="#231F20"/>
<path opacity="0.2" d="M337.597 136.259C335.91 139.414 329.068 141.578 325.686 147.438C325.44 147.035 325.223 146.615 325.039 146.18C328.523 140.755 334.965 138.631 336.595 135.583C338.054 132.854 336.937 129.581 334.571 127.685C337.599 129.382 339.25 133.169 337.597 136.259Z" fill="#231F20"/>
<path d="M323.382 148.317C323.726 148.247 324.082 148.252 324.424 148.333C324.766 148.414 325.086 148.569 325.362 148.787C325.637 149.005 325.862 149.281 326.019 149.595C326.176 149.909 326.263 150.253 326.272 150.604L331.404 152.569L330.968 155.971L323.759 153.094C323.168 153.071 322.605 152.832 322.178 152.423C321.752 152.013 321.49 151.462 321.444 150.873C321.397 150.284 321.569 149.699 321.926 149.228C322.283 148.757 322.801 148.433 323.382 148.317Z" fill="#A0616A"/>
<path d="M359.24 141.306C358.7 140.977 358.1 140.758 357.474 140.661C356.849 140.563 356.21 140.59 355.595 140.74C354.98 140.89 354.401 141.159 353.89 141.532C353.38 141.906 352.948 142.376 352.62 142.916L345.254 155.051L328.599 151.113L327.082 155.268L348.41 165.346L359.212 148.183C360.829 145.916 361.621 142.756 359.24 141.306Z" fill="#CCCCCC"/>
<path d="M359.515 126.435C359.516 127.604 359.229 128.756 358.679 129.789C358.129 130.822 357.333 131.704 356.361 132.359C355.39 133.013 354.272 133.42 353.106 133.543C351.94 133.666 350.762 133.501 349.674 133.064C348.587 132.626 347.624 131.929 346.87 131.034C346.115 130.139 345.593 129.072 345.348 127.928C345.103 126.785 345.144 125.598 345.466 124.474C345.788 123.349 346.382 122.321 347.196 121.479L347.23 121.445C347.288 121.384 347.345 121.324 347.405 121.267C347.405 121.267 347.406 121.267 347.406 121.267C347.407 121.267 347.407 121.267 347.407 121.266C347.407 121.266 347.408 121.266 347.408 121.266C347.408 121.265 347.408 121.265 347.408 121.264C347.482 121.196 347.557 121.127 347.634 121.062C348.669 120.156 349.944 119.568 351.305 119.367C352.667 119.165 354.058 119.36 355.311 119.927C356.565 120.494 357.628 121.409 358.374 122.563C359.119 123.717 359.516 125.062 359.515 126.435Z" fill="#2F2E41"/>
<path d="M350.588 134.08C353.905 134.08 356.594 131.397 356.594 128.088C356.594 124.779 353.905 122.097 350.588 122.097C347.271 122.097 344.582 124.779 344.582 128.088C344.582 131.397 347.271 134.08 350.588 134.08Z" fill="#9E616A"/>
<path d="M356.966 129.797L355.971 129.621C355.415 129.521 354.903 129.253 354.504 128.854C354.104 128.455 353.837 127.944 353.736 127.389L352.765 129.013L352.723 129.027C350.409 129.793 348.002 129.564 345.366 128.327C344.612 127.97 343.881 127.568 343.176 127.122L343.124 127.09L343.119 127.029C342.985 125.08 343.423 123.452 344.354 122.444C344.712 122.065 345.145 121.766 345.627 121.565C346.108 121.365 346.627 121.269 347.148 121.282C347.186 121.273 347.22 121.254 347.248 121.228C347.261 121.218 347.274 121.208 347.288 121.199V121.189L347.357 121.156C347.505 121.087 347.656 121.02 347.807 120.96C348.995 120.501 350.29 120.385 351.541 120.627C352.792 120.869 353.949 121.458 354.88 122.327C356.73 124.089 357.578 127.046 356.991 129.685L356.966 129.797Z" fill="#2F2E41"/>
<path d="M369.634 134.902C367.59 133.849 370.219 130.03 369.691 127.797C369.162 125.564 365.359 124.845 365.116 122.564C364.874 120.282 364.304 117.929 362.795 116.197C361.83 115.091 360.409 114.274 358.946 114.413C358.451 114.46 357.972 114.612 357.541 114.861C357.111 115.109 356.739 115.447 356.451 115.851C356.163 116.256 355.966 116.718 355.873 117.205C355.781 117.692 355.794 118.194 355.913 118.675C355.496 118.087 354.418 118.214 354.152 118.884C353.914 119.479 354.438 120.201 355.055 120.253C355.862 121.248 356.786 122.303 358.051 122.503C358.252 122.55 358.462 122.549 358.663 122.503C358.864 122.457 359.053 122.365 359.213 122.236C359.511 121.951 359.534 121.381 359.181 121.168C360.77 121.798 361.702 123.512 361.938 125.201C362.173 126.89 361.847 128.599 361.632 130.292C361.417 131.984 361.325 133.764 361.99 135.335C362.775 137.191 364.585 138.522 366.559 138.949C368.533 139.375 370.636 138.958 372.423 138.019C374.21 137.079 375.7 135.645 376.918 134.036C374.821 135.522 371.919 136.078 369.634 134.902Z" fill="#2F2E41"/>
<path d="M356.71 129.63C356.71 129.63 354.931 123.005 347.305 121.476C347.296 121.473 347.267 121.462 347.23 121.444C347.207 121.43 347.179 121.416 347.15 121.402C347.236 121.353 347.319 121.31 347.405 121.267L347.406 121.267L347.407 121.266L347.408 121.265L347.408 121.264C347.482 121.196 347.557 121.127 347.634 121.061L347.852 121.07C347.852 121.07 355.504 119.861 356.71 129.63Z" fill="#FD6584"/>
<path opacity="0.2" d="M352.727 150.888L348.42 155.866L341.302 153.769L349.061 157.336L352.727 150.888Z" fill="black"/>
<path d="M378.581 241.631L312.355 241.705C312.279 241.704 312.207 241.674 312.153 241.621C312.1 241.567 312.07 241.495 312.07 241.419C312.07 241.344 312.1 241.271 312.153 241.218C312.207 241.165 312.279 241.134 312.355 241.134L378.581 241.061C378.657 241.061 378.73 241.091 378.784 241.144C378.837 241.198 378.867 241.27 378.867 241.346C378.867 241.421 378.837 241.494 378.784 241.548C378.73 241.601 378.657 241.631 378.581 241.631Z" fill="#CACACA"/>
<path d="M281.353 238.814C278.396 238.814 276 236.617 276 233.907C276 231.197 278.396 229 281.353 229C284.309 229 286.706 231.197 286.706 233.907C286.706 236.617 284.309 238.814 281.353 238.814Z" fill="#4D7DFF"/>
</g>
<path d="M393.037 154.119C389.588 154.119 386.791 151.523 386.791 148.32C386.791 145.117 389.588 142.521 393.037 142.521C396.486 142.521 399.282 145.117 399.282 148.32C399.282 151.523 396.486 154.119 393.037 154.119Z" fill="#F7F8F9"/>
<path d="M77.2514 234.228C78.0508 237.115 76.2803 240.082 73.2969 240.856C70.3135 241.629 67.2469 239.916 66.4475 237.029C65.648 234.142 67.4186 231.175 70.402 230.401C73.3854 229.628 76.452 231.341 77.2514 234.228Z" fill="#F7F8F9"/>
<path d="M177.57 126.461C176.338 126.461 175.339 125.462 175.339 124.231C175.339 122.999 176.338 122 177.57 122C178.802 122 179.8 122.999 179.8 124.231C179.8 125.462 178.802 126.461 177.57 126.461Z" fill="#F7F8F9"/>
<path d="M404.799 196.706C401.596 196.706 399 194.31 399 191.353C399 188.397 401.596 186 404.799 186C408.002 186 410.599 188.397 410.599 191.353C410.599 194.31 408.002 196.706 404.799 196.706Z" fill="#F7F8F9"/>
<path d="M382.799 236.922C379.596 236.922 377 234.925 377 232.461C377 229.997 379.596 228 382.799 228C386.002 228 388.599 229.997 388.599 232.461C388.599 234.925 386.002 236.922 382.799 236.922Z" fill="#F7F8F9"/>
<path d="M119.138 181.275C115.196 181.275 112 178.08 112 174.138C112 170.196 115.196 167 119.138 167C123.08 167 126.275 170.196 126.275 174.138C126.275 178.08 123.08 181.275 119.138 181.275Z" fill="#F7F8F9"/>
<path d="M134.476 225.06C129.795 225.06 126 221.465 126 217.03C126 212.595 129.795 209 134.476 209C139.157 209 142.952 212.595 142.952 217.03C142.952 221.465 139.157 225.06 134.476 225.06Z" fill="#4D7DFF"/>
<path d="M205.583 136C201.395 136 198 139.196 198 143.138C198 147.08 201.395 150.275 205.583 150.275C209.772 150.275 213.167 147.08 213.167 143.138C213.167 139.196 209.772 136 205.583 136Z" fill="#4D7DFF"/>
<path d="M172.728 0H172.808C173.282 6.61895 178.275 6.72066 178.275 6.72066C178.275 6.72066 172.769 6.82694 172.769 14.4746C172.769 6.82694 167.263 6.72066 167.263 6.72066C167.263 6.72066 172.254 6.61895 172.728 0ZM169.247 194.343H169.324C169.778 200.943 174.572 201.044 174.572 201.044C174.572 201.044 169.286 201.15 169.286 208.775C169.286 201.15 164 201.044 164 201.044C164 201.044 168.792 200.943 169.247 194.343Z" fill="#F7F8F9"/>
<defs>
<clipPath id="clip0_696_132">
<rect width="171" height="138" fill="white" transform="translate(206 106)"/>
</clipPath>
<clipPath id="clip1_696_132">
<rect width="120.805" height="97.2708" fill="white" transform="translate(220.891 125.406)"/>
</clipPath>
</defs>
</svg>
