<svg width="437" height="269" viewBox="0 0 437 269" fill="none" xmlns="http://www.w3.org/2000/svg">
<path d="M274.911 233.017H58.0002C54.583 233.017 51.8027 230.237 51.8027 226.82C51.8027 223.402 54.583 220.622 58.0002 220.622H274.911C278.329 220.622 281.109 223.402 281.109 226.82C281.109 230.237 278.329 233.017 274.911 233.017Z" fill="#F7F8F9"/>
<path d="M52 239C59.1797 239 65 233.18 65 226C65 218.82 59.1797 213 52 213C44.8203 213 39 218.82 39 226C39 233.18 44.8203 239 52 239Z" fill="#F7F8F9"/>
<path d="M13 269C20.1797 269 26 263.18 26 256C26 248.82 20.1797 243 13 243C5.8203 243 0 248.82 0 256C0 263.18 5.8203 269 13 269Z" fill="#F7F8F9"/>
<path d="M289.231 120.999L84.1951 191.785C80.9649 192.9 77.4296 191.179 76.3144 187.949C75.1993 184.719 76.92 181.184 80.1502 180.068L285.186 109.283C288.417 108.167 291.952 109.888 293.067 113.118C294.182 116.348 292.461 119.884 289.231 120.999Z" fill="#F7F8F9"/>
<path d="M336.959 128.487L51.2539 227.122L51.7595 228.587L337.464 129.951L336.959 128.487Z" fill="#F7F8F9"/>
<path d="M55.9107 238.558C62.6974 236.215 66.2997 228.814 63.9567 222.027C61.6137 215.241 54.2126 211.638 47.426 213.981C40.6394 216.324 37.0371 223.725 39.3801 230.512C41.723 237.299 49.1241 240.901 55.9107 238.558Z" fill="#F7F8F9"/>
<path d="M84.5836 199.037C91.3702 196.694 94.9725 189.293 92.6295 182.507C90.2865 175.72 82.8855 172.118 76.0989 174.461C69.3122 176.804 65.7099 184.205 68.0529 190.991C70.3959 197.778 77.7969 201.38 84.5836 199.037Z" fill="#F7F8F9"/>
<path d="M391.117 25.0043L110.803 138.053L111.382 139.49L391.697 26.4412L391.117 25.0043Z" fill="#3F3D56"/>
<path d="M343.072 19.9553L141.904 101.085C138.735 102.363 135.117 100.824 133.838 97.6549C132.56 94.4857 134.099 90.8674 137.268 89.5893L338.436 8.46002C341.605 7.18191 345.224 8.72048 346.502 11.8897C347.78 15.0589 346.241 18.6772 343.072 19.9553Z" fill="#4D7DFF"/>
<path d="M113.254 150.359C119.912 147.674 123.133 140.099 120.448 133.44C117.762 126.782 110.188 123.561 103.529 126.246C96.8705 128.931 93.6496 136.506 96.3349 143.165C99.0203 149.823 106.595 153.044 113.254 150.359Z" fill="#4D7DFF"/>
<path d="M139.878 109.43C146.536 106.745 149.757 99.1702 147.072 92.5116C144.387 85.853 136.812 82.6321 130.153 85.3174C123.495 88.0028 120.274 95.5776 122.959 102.236C125.644 108.895 133.219 112.116 139.878 109.43Z" fill="#4D7DFF"/>
<g clip-path="url(#clip0_312_678)">
<g clip-path="url(#clip1_312_678)">
<path d="M327.335 187.677L327.309 187.675L287.251 183.966L250.825 187.338C249.874 187.426 248.927 187.134 248.192 186.526C247.457 185.918 246.994 185.044 246.906 184.096C246.896 183.986 246.891 183.875 246.891 183.764V97.415C246.887 96.5194 247.221 95.655 247.826 94.9931C248.431 94.3312 249.264 93.9199 250.159 93.8407L287.251 90.4062L287.277 90.4087L327.335 94.1177L363.761 90.7449C364.712 90.6569 365.659 90.949 366.394 91.557C367.129 92.1651 367.592 93.0392 367.68 93.9872C367.69 94.0976 367.695 94.2082 367.695 94.3192V180.668C367.699 181.564 367.365 182.428 366.76 183.09C366.155 183.752 365.322 184.163 364.427 184.243L327.335 187.677Z" fill="#3F3D56"/>
<path d="M302.731 122.351C294.977 116.722 286.818 111.385 278.483 106.488L278.065 106.242V122.851H303.419L302.731 122.351ZM278.619 122.299V107.21C286.548 111.885 294.312 116.957 301.716 122.299L278.619 122.299ZM341.974 156.485C338.621 153.01 335.18 149.614 331.653 146.297C330.681 145.382 329.702 144.474 328.718 143.573C322.711 138.073 316.505 132.841 310.103 127.879L310.028 127.821H278.065V156.953H342.426L341.974 156.485ZM278.619 156.401V128.374H309.838C316.012 133.16 322.018 138.215 327.858 143.537C328.872 144.461 329.879 145.392 330.879 146.33C334.375 149.605 337.789 152.962 341.122 156.401H278.619ZM341.974 156.485C338.621 153.01 335.18 149.614 331.653 146.297C330.681 145.382 329.702 144.474 328.718 143.573C322.711 138.073 316.505 132.841 310.103 127.879L310.028 127.821H278.065V156.953H342.426L341.974 156.485ZM278.619 156.401V128.374H309.838C316.012 133.16 322.018 138.215 327.858 143.537C328.872 144.461 329.879 145.392 330.879 146.33C334.375 149.605 337.789 152.962 341.122 156.401H278.619ZM302.731 122.351C294.977 116.722 286.818 111.385 278.483 106.488L278.065 106.242V122.851H303.419L302.731 122.351ZM278.619 122.299V107.21C286.548 111.885 294.312 116.957 301.716 122.299L278.619 122.299ZM302.731 122.351C294.977 116.722 286.818 111.385 278.483 106.488L278.065 106.242V122.851H303.419L302.731 122.351ZM278.619 122.299V107.21C286.548 111.885 294.312 116.957 301.716 122.299L278.619 122.299ZM341.974 156.485C338.621 153.01 335.18 149.614 331.653 146.297C330.681 145.382 329.702 144.474 328.718 143.573C322.711 138.073 316.505 132.841 310.103 127.879L310.028 127.821H278.065V156.953H342.426L341.974 156.485ZM278.619 156.401V128.374H309.838C316.012 133.16 322.018 138.215 327.858 143.537C328.872 144.461 329.879 145.392 330.879 146.33C334.375 149.605 337.789 152.962 341.122 156.401H278.619ZM250.642 161.923V162.476H272.524V170.483H250.642V171.036H273.079V161.923H250.642ZM278.065 176.006V181.602L278.619 181.551V176.558H363.946V176.006L278.065 176.006ZM363.946 162.476V161.923H278.065V171.036H363.946V170.483H278.619V162.476L363.946 162.476ZM312.203 122.299C301.573 114.126 290.348 106.754 278.619 100.243V94.6514L278.065 94.7024V100.337L278.492 100.805C290.172 107.298 301.352 114.648 311.939 122.793L312.014 122.851H363.946V122.299L312.203 122.299ZM272.524 122.299H250.642V122.851H273.079V95.1636L272.524 95.2147L272.524 122.299ZM363.946 127.821H318.292L318.889 128.31C324.51 132.92 330.029 137.809 335.446 142.978C336.216 143.713 336.983 144.453 337.748 145.2C341.554 148.907 345.286 152.735 348.944 156.684L349.401 156.953H363.946V156.401H349.436C345.818 152.491 342.121 148.694 338.346 145.01C337.591 144.273 336.834 143.541 336.073 142.814C330.774 137.745 325.361 132.932 319.835 128.374H363.946V127.821ZM250.642 176.006V176.558H272.524V182.114L273.079 182.063V176.006H250.642ZM250.642 127.821V128.374H272.524V156.401H250.642V156.953H273.079V127.821H250.642ZM302.731 122.351C294.977 116.722 286.818 111.385 278.483 106.488L278.065 106.242V122.851H303.419L302.731 122.351ZM278.619 122.299V107.21C286.548 111.885 294.312 116.957 301.716 122.299L278.619 122.299ZM341.974 156.485C338.621 153.01 335.18 149.614 331.653 146.297C330.681 145.382 329.702 144.474 328.718 143.573C322.711 138.073 316.505 132.841 310.103 127.879L310.028 127.821H278.065V156.953H342.426L341.974 156.485ZM278.619 156.401V128.374H309.838C316.012 133.16 322.018 138.215 327.858 143.537C328.872 144.461 329.879 145.392 330.879 146.33C334.375 149.605 337.789 152.962 341.122 156.401H278.619ZM302.731 122.351C294.977 116.722 286.818 111.385 278.483 106.488L278.065 106.242V122.851H303.419L302.731 122.351ZM278.619 122.299V107.21C286.548 111.885 294.312 116.957 301.716 122.299L278.619 122.299ZM341.974 156.485C338.621 153.01 335.18 149.614 331.653 146.297C330.681 145.382 329.702 144.474 328.718 143.573C322.711 138.073 316.505 132.841 310.103 127.879L310.028 127.821H278.065V156.953H342.426L341.974 156.485ZM278.619 156.401V128.374H309.838C316.012 133.16 322.018 138.215 327.858 143.537C328.872 144.461 329.879 145.392 330.879 146.33C334.375 149.605 337.789 152.962 341.122 156.401H278.619Z" fill="white"/>
<path d="M328.872 112.196C331.668 112.196 333.935 109.936 333.935 107.149C333.935 104.362 331.668 102.103 328.872 102.103C326.075 102.103 323.809 104.362 323.809 107.149C323.809 109.936 326.075 112.196 328.872 112.196Z" fill="#FF6584"/>
<path d="M344.75 122.701H319.911C319.88 122.702 319.849 122.699 319.818 122.694L331.566 102.412C331.637 102.286 331.742 102.181 331.867 102.108C331.993 102.035 332.136 101.996 332.282 101.996C332.427 101.996 332.57 102.035 332.696 102.108C332.822 102.181 332.926 102.286 332.998 102.412L340.882 116.023L341.259 116.674L344.75 122.701Z" fill="white"/>
<path opacity="0.2" d="M344.749 122.701H336.269L340.432 116.674L340.731 116.24L340.881 116.022L341.259 116.674L344.749 122.701Z" fill="black"/>
<path d="M358.579 122.701H337.096L341.259 116.674L341.558 116.24L346.983 108.385C347.339 107.871 348.194 107.839 348.612 108.288C348.641 108.319 348.667 108.352 348.691 108.385L358.579 122.701Z" fill="white"/>
<path d="M360.173 151.292C361.588 151.292 362.735 150.148 362.735 148.738C362.735 147.327 361.588 146.184 360.173 146.184C358.758 146.184 357.61 147.327 357.61 148.738C357.61 150.148 358.758 151.292 360.173 151.292Z" fill="white"/>
<path d="M360.42 156.431H359.896L360.135 148.353L360.42 156.431Z" fill="#CBCBCB"/>
<path d="M360.181 149.885L360.744 149.107L360.173 150.077L360.111 149.969L360.181 149.885Z" fill="#CBCBCB"/>
<path d="M360.119 150.669L359.556 149.892L360.127 150.861L360.189 150.753L360.119 150.669Z" fill="#CBCBCB"/>
<path d="M352.886 148.842C354.976 148.842 356.671 147.153 356.671 145.069C356.671 142.986 354.976 141.297 352.886 141.297C350.796 141.297 349.102 142.986 349.102 145.069C349.102 147.153 350.796 148.842 352.886 148.842Z" fill="white"/>
<path d="M353.252 156.431H352.477L352.83 144.5L353.252 156.431Z" fill="#CBCBCB"/>
<path d="M352.898 146.762L353.731 145.614L352.887 147.046L352.796 146.887L352.898 146.762Z" fill="#CBCBCB"/>
<path d="M352.807 147.921L351.975 146.773L352.818 148.205L352.909 148.046L352.807 147.921Z" fill="#CBCBCB"/>
<path d="M265.019 151.292C266.434 151.292 267.581 150.148 267.581 148.738C267.581 147.327 266.434 146.184 265.019 146.184C263.603 146.184 262.456 147.327 262.456 148.738C262.456 150.148 263.603 151.292 265.019 151.292Z" fill="white"/>
<path d="M265.266 156.431H264.741L264.98 148.353L265.266 156.431Z" fill="#CBCBCB"/>
<path d="M265.026 149.885L265.59 149.107L265.019 150.077L264.957 149.969L265.026 149.885Z" fill="#CBCBCB"/>
<path d="M264.965 150.669L264.401 149.892L264.973 150.861L265.034 150.753L264.965 150.669Z" fill="#CBCBCB"/>
<path d="M257.732 148.842C259.822 148.842 261.517 147.153 261.517 145.069C261.517 142.986 259.822 141.297 257.732 141.297C255.642 141.297 253.947 142.986 253.947 145.069C253.947 147.153 255.642 148.842 257.732 148.842Z" fill="white"/>
<path d="M258.096 156.431H257.321L257.675 144.5L258.096 156.431Z" fill="#CBCBCB"/>
<path d="M257.743 146.762L258.575 145.614L257.732 147.046L257.641 146.887L257.743 146.762Z" fill="#CBCBCB"/>
<path d="M257.653 147.921L256.82 146.773L257.664 148.205L257.755 148.046L257.653 147.921Z" fill="#CBCBCB"/>
<path d="M283.637 150.411C283.637 155.499 274.39 166.834 274.39 166.834C274.39 166.834 265.144 155.499 265.144 150.411C265.144 147.968 266.118 145.624 267.852 143.897C269.586 142.169 271.938 141.198 274.39 141.198C276.842 141.198 279.194 142.169 280.928 143.897C282.662 145.624 283.637 147.968 283.637 150.411Z" fill="#4D7DFF"/>
<path d="M278.592 149.943C278.592 150.772 278.346 151.583 277.884 152.272C277.422 152.962 276.766 153.499 275.998 153.816C275.23 154.134 274.385 154.217 273.57 154.055C272.754 153.893 272.005 153.494 271.418 152.907C270.83 152.321 270.429 151.574 270.267 150.761C270.105 149.947 270.188 149.104 270.506 148.338C270.825 147.572 271.363 146.917 272.054 146.457C272.746 145.996 273.558 145.75 274.389 145.75C274.941 145.75 275.488 145.858 275.998 146.069C276.508 146.279 276.972 146.588 277.362 146.977C277.752 147.367 278.062 147.829 278.273 148.338C278.484 148.847 278.593 149.392 278.592 149.943Z" fill="white"/>
<path d="M274.39 173.542C275.783 173.542 276.912 172.416 276.912 171.026C276.912 169.637 275.783 168.511 274.39 168.511C272.997 168.511 271.868 169.637 271.868 171.026C271.868 172.416 272.997 173.542 274.39 173.542Z" fill="#4D7DFF"/>
<path d="M321.773 128.704C321.773 135.698 309.069 151.277 309.069 151.277C309.069 151.277 296.365 135.698 296.365 128.704C296.365 125.346 297.704 122.125 300.086 119.751C302.469 117.376 305.7 116.042 309.069 116.042C312.438 116.042 315.67 117.376 318.052 119.751C320.435 122.125 321.773 125.346 321.773 128.704Z" fill="#4D7DFF"/>
<path d="M314.877 128.154C314.877 129.299 314.536 130.418 313.898 131.37C313.26 132.322 312.353 133.064 311.292 133.502C310.23 133.94 309.063 134.054 307.936 133.831C306.81 133.608 305.775 133.056 304.963 132.247C304.151 131.437 303.597 130.406 303.373 129.283C303.149 128.16 303.264 126.996 303.704 125.939C304.143 124.881 304.888 123.977 305.843 123.341C306.798 122.705 307.921 122.365 309.069 122.365C309.832 122.365 310.587 122.514 311.292 122.805C311.997 123.096 312.637 123.522 313.177 124.06C313.716 124.597 314.144 125.236 314.435 125.938C314.727 126.641 314.877 127.394 314.877 128.154Z" fill="white"/>
<path d="M309.069 160.416C310.96 160.416 312.494 158.887 312.494 157.002C312.494 155.117 310.96 153.589 309.069 153.589C307.178 153.589 305.645 155.117 305.645 157.002C305.645 158.887 307.178 160.416 309.069 160.416Z" fill="#4D7DFF"/>
</g>
<path d="M347.382 93.2596C347.721 93.3526 348.035 93.5187 348.303 93.7462C348.571 93.9736 348.786 94.2568 348.932 94.5759C349.078 94.895 349.152 95.2421 349.149 95.593C349.146 95.9438 349.066 96.2897 348.915 96.6063L352.591 100.683L350.652 103.516L345.542 97.6859C345.026 97.3969 344.633 96.929 344.44 96.3708C344.246 95.8127 344.264 95.2031 344.491 94.6575C344.718 94.1119 345.137 93.6682 345.67 93.4106C346.203 93.1529 346.812 93.0992 347.382 93.2596Z" fill="#A0616A"/>
<path d="M381.797 103.272C381.465 102.734 381.031 102.266 380.518 101.896C380.005 101.526 379.424 101.26 378.808 101.115C378.191 100.969 377.553 100.946 376.928 101.047C376.303 101.149 375.704 101.372 375.166 101.704L363.076 109.174L350.035 98.1152L346.79 101.129L361.197 119.776L379.922 110.038C379.485 110.265 382.325 104.129 381.797 103.272Z" fill="#CCCCCC"/>
<path d="M378.518 200.148H375.294L373.76 187.741L378.519 187.741L378.518 200.148Z" fill="#A0616A"/>
<path d="M380.253 206.255H377.965L377.556 204.101L376.51 206.255H370.442C370.151 206.255 369.868 206.163 369.634 205.991C369.4 205.819 369.226 205.577 369.14 205.3C369.053 205.023 369.058 204.725 369.153 204.451C369.248 204.177 369.428 203.94 369.667 203.775L374.513 200.436V198.258L379.61 198.561L380.253 206.255Z" fill="#2F2E41"/>
<path d="M366.029 200.148H362.804L361.271 187.741L366.029 187.741L366.029 200.148Z" fill="#A0616A"/>
<path d="M367.763 206.255H365.476L365.067 204.101L364.021 206.255H357.953C357.662 206.255 357.379 206.163 357.145 205.991C356.91 205.819 356.737 205.577 356.651 205.3C356.564 205.023 356.569 204.725 356.663 204.451C356.758 204.177 356.939 203.94 357.178 203.775L362.024 200.436V198.258L367.121 198.561L367.763 206.255Z" fill="#2F2E41"/>
<path d="M353.779 167.392C354.396 168.315 361.109 193.697 361.109 193.697L367.061 194.374L366.354 187.988L365.275 176.687L363.602 169.143C363.602 169.143 369.507 155.737 369.881 154.669L370.146 153.903L371.991 170.605C372.21 171.201 372.306 171.836 372.272 172.47C372.216 173.514 373.265 189.21 373.265 189.21L373.769 194.839L378.869 195.545L380.938 185.806C382.666 182.642 381.675 171.399 380.969 170.353C380.262 169.306 380.543 162.018 380.543 162.018C381.445 161.702 386.825 143.401 384.134 143.509C384.307 142.534 384.443 141.663 384.443 141.663L379.772 137.905L368.082 134.874L365.133 133.461C365.133 133.461 359.866 143.177 359.918 143.66C359.991 144.272 359.85 144.891 359.52 145.411L354.202 163.166C354.202 163.166 353.156 166.46 353.779 167.392Z" fill="#2F2E41"/>
<path d="M383.148 103.858L381.289 99.9189L374.959 100.162L372.894 104.259C372.894 104.259 366.994 111.289 366.803 113.575C366.563 116.45 368.559 130.541 366.563 129.627C366.563 129.627 361.857 135.138 364.642 135.138C367.426 135.138 380.023 143.026 380.849 143.913C381.676 144.8 385.366 145.375 385.056 143.523C384.747 141.671 383.148 131.656 383.148 131.656L387.476 115.907C388.721 112.507 389.109 108.693 386.293 106.409L383.148 103.858Z" fill="#CCCCCC"/>
<path d="M359.703 92.2655C358.857 91.9303 357.952 91.7646 357.041 91.7781C356.131 91.7916 355.231 91.9839 354.395 92.344C353.559 92.7041 352.802 93.2251 352.167 93.877C351.533 94.529 351.033 95.2992 350.697 96.1438C349.284 99.6956 349.05 108.178 351.68 112.429C355.062 106.569 361.904 104.405 363.591 101.249C365.394 97.8779 363.264 93.6754 359.703 92.2655Z" fill="#4D7DFF"/>
<path d="M356.856 100.16C358.105 100.16 359.118 99.1494 359.118 97.9031C359.118 96.6568 358.105 95.6465 356.856 95.6465C355.607 95.6465 354.594 96.6568 354.594 97.9031C354.594 99.1494 355.607 100.16 356.856 100.16Z" fill="white"/>
<path d="M350.049 115.305C350.867 115.305 351.531 114.643 351.531 113.827C351.531 113.01 350.867 112.349 350.049 112.349C349.231 112.349 348.567 113.01 348.567 113.827C348.567 114.643 349.231 115.305 350.049 115.305Z" fill="#4D7DFF"/>
<path opacity="0.2" d="M359.088 96.8328C359.502 97.265 359.727 97.8437 359.714 98.4416C359.701 99.0396 359.451 99.6079 359.018 100.022C358.585 100.436 358.005 100.661 357.406 100.649C356.807 100.636 356.237 100.387 355.821 99.9556C356.297 100.205 356.845 100.278 357.37 100.161C357.894 100.043 358.359 99.7438 358.682 99.3157C359.005 98.8875 359.164 98.3587 359.132 97.8239C359.1 97.289 358.878 96.783 358.506 96.3965C358.722 96.5097 358.919 96.6571 359.088 96.8328Z" fill="#231F20"/>
<path opacity="0.2" d="M363.597 101.259C361.91 104.414 355.068 106.578 351.686 112.438C351.44 112.036 351.223 111.615 351.039 111.181C354.523 105.755 360.965 103.632 362.595 100.583C364.054 97.8544 362.937 94.5819 360.571 92.6855C363.599 94.3822 365.25 98.1693 363.597 101.259Z" fill="#231F20"/>
<path d="M349.382 113.318C349.727 113.247 350.082 113.253 350.425 113.334C350.767 113.415 351.087 113.57 351.362 113.788C351.638 114.006 351.862 114.281 352.019 114.595C352.177 114.909 352.263 115.253 352.273 115.604L357.404 117.569L356.968 120.972L349.76 118.095C349.168 118.072 348.606 117.833 348.179 117.423C347.752 117.014 347.491 116.463 347.444 115.874C347.397 115.285 347.569 114.699 347.926 114.228C348.284 113.757 348.802 113.433 349.382 113.318Z" fill="#A0616A"/>
<path d="M385.24 106.306C384.699 105.977 384.099 105.758 383.474 105.661C382.848 105.563 382.21 105.59 381.595 105.74C380.98 105.89 380.4 106.159 379.89 106.532C379.379 106.906 378.947 107.376 378.619 107.916L371.253 120.051L354.598 116.113L353.081 120.268L374.409 130.346L385.211 113.183C386.829 110.916 387.621 107.756 385.24 106.306Z" fill="#CCCCCC"/>
<path d="M385.515 91.4351C385.516 92.6047 385.229 93.7565 384.679 94.7894C384.129 95.8223 383.333 96.7047 382.361 97.3592C381.39 98.0137 380.272 98.4203 379.106 98.5432C377.94 98.6662 376.762 98.5017 375.674 98.0643C374.587 97.6269 373.624 96.9299 372.87 96.0345C372.115 95.1391 371.593 94.0727 371.348 92.9289C371.103 91.7851 371.144 90.5989 371.466 89.4743C371.788 88.3498 372.382 87.3214 373.196 86.4793L373.23 86.445C373.288 86.385 373.345 86.325 373.405 86.2678C373.405 86.2678 373.406 86.2677 373.406 86.2676C373.407 86.2674 373.407 86.2672 373.407 86.267C373.407 86.2667 373.408 86.2664 373.408 86.266C373.408 86.2657 373.408 86.2653 373.408 86.2649C373.482 86.1963 373.557 86.1277 373.634 86.062C374.669 85.1568 375.944 84.5684 377.305 84.3672C378.667 84.1659 380.058 84.3604 381.311 84.9274C382.565 85.4943 383.628 86.4096 384.374 87.5638C385.119 88.718 385.516 90.062 385.515 91.4351Z" fill="#2F2E41"/>
<path d="M376.588 99.0796C379.905 99.0796 382.594 96.3971 382.594 93.0881C382.594 89.7791 379.905 87.0967 376.588 87.0967C373.271 87.0967 370.582 89.7791 370.582 93.0881C370.582 96.3971 373.271 99.0796 376.588 99.0796Z" fill="#9E616A"/>
<path d="M382.966 94.7968L381.971 94.6215C381.415 94.5207 380.903 94.2529 380.504 93.854C380.104 93.455 379.837 92.944 379.736 92.3892L378.765 94.0126L378.723 94.0266C376.409 94.7929 374.002 94.5637 371.366 93.3269C370.612 92.9702 369.881 92.568 369.176 92.1225L369.124 92.0901L369.119 92.0291C368.985 90.08 369.423 88.4517 370.354 87.4442C370.712 87.0651 371.145 86.7656 371.627 86.5654C372.108 86.3651 372.627 86.2687 373.148 86.2823C373.186 86.2726 373.22 86.2538 373.248 86.2276C373.261 86.2178 373.274 86.2081 373.288 86.1989V86.1888L373.357 86.1564C373.505 86.0869 373.656 86.0203 373.807 85.9595C374.995 85.5006 376.29 85.3854 377.541 85.6274C378.792 85.8693 379.949 86.4584 380.88 87.3271C382.73 89.0889 383.578 92.0457 382.991 94.6849L382.966 94.7968Z" fill="#2F2E41"/>
<path d="M395.634 99.9015C393.591 98.8492 396.219 95.0298 395.691 92.7966C395.163 90.5635 391.359 89.8453 391.117 87.5636C390.874 85.2819 390.304 82.9286 388.795 81.1973C387.831 80.091 386.41 79.2742 384.946 79.4128C384.451 79.4597 383.972 79.6125 383.542 79.8607C383.111 80.109 382.739 80.4468 382.452 80.8514C382.164 81.2559 381.967 81.7176 381.874 82.2049C381.781 82.6923 381.795 83.1938 381.914 83.6755C381.497 83.0866 380.419 83.2143 380.152 83.884C379.915 84.4795 380.439 85.2007 381.056 85.2534C381.863 86.2477 382.787 87.3029 384.051 87.5034C384.253 87.5496 384.462 87.5495 384.664 87.5031C384.865 87.4567 385.053 87.3653 385.214 87.2357C385.511 86.9508 385.535 86.381 385.182 86.1681C386.771 86.7978 387.702 88.5116 387.938 90.2009C388.174 91.8902 387.848 93.5994 387.633 95.2915C387.418 96.9836 387.325 98.7636 387.99 100.335C388.776 102.191 390.585 103.522 392.559 103.949C394.534 104.375 396.636 103.958 398.424 103.019C400.211 102.079 401.701 100.645 402.918 99.0364C400.821 100.522 397.92 101.078 395.634 99.9015Z" fill="#2F2E41"/>
<path d="M382.711 94.6298C382.711 94.6298 380.932 88.0049 373.305 86.4759C373.297 86.473 373.268 86.4616 373.231 86.4445C373.208 86.4302 373.179 86.4159 373.15 86.4016C373.236 86.353 373.319 86.3101 373.405 86.2672L373.406 86.267L373.407 86.2664L373.408 86.2655L373.408 86.2644C373.483 86.1958 373.557 86.1272 373.635 86.0615L373.852 86.0701C373.852 86.0701 381.505 84.8611 382.711 94.6298Z" fill="#FD6584"/>
<path opacity="0.2" d="M378.728 115.888L374.42 120.866L367.303 118.769L375.062 122.336L378.728 115.888Z" fill="black"/>
<path d="M404.582 206.631L338.355 206.705C338.28 206.704 338.207 206.674 338.154 206.621C338.1 206.567 338.07 206.495 338.07 206.419C338.07 206.344 338.1 206.271 338.154 206.218C338.207 206.165 338.28 206.134 338.355 206.134L404.582 206.061C404.658 206.061 404.73 206.091 404.784 206.144C404.838 206.198 404.868 206.27 404.868 206.346C404.868 206.421 404.838 206.494 404.784 206.548C404.73 206.601 404.658 206.631 404.582 206.631Z" fill="#CACACA"/>
<path d="M307.353 203.814C304.396 203.814 302 201.617 302 198.907C302 196.197 304.396 194 307.353 194C310.309 194 312.706 196.197 312.706 198.907C312.706 201.617 310.309 203.814 307.353 203.814Z" fill="#4D7DFF"/>
</g>
<path d="M419.037 119.119C415.588 119.119 412.791 116.523 412.791 113.32C412.791 110.117 415.588 107.521 419.037 107.521C422.486 107.521 425.282 110.117 425.282 113.32C425.282 116.523 422.486 119.119 419.037 119.119Z" fill="#F7F8F9"/>
<path d="M103.251 199.228C104.051 202.115 102.28 205.082 99.2969 205.856C96.3135 206.629 93.2469 204.916 92.4475 202.029C91.648 199.142 93.4186 196.175 96.402 195.401C99.3854 194.628 102.452 196.341 103.251 199.228Z" fill="#F7F8F9"/>
<path d="M203.57 91.461C202.338 91.461 201.34 90.4624 201.34 89.2305C201.34 87.9986 202.338 87 203.57 87C204.802 87 205.801 87.9986 205.801 89.2305C205.801 90.4624 204.802 91.461 203.57 91.461Z" fill="#F7F8F9"/>
<path d="M430.799 161.706C427.596 161.706 425 159.31 425 156.353C425 153.397 427.596 151 430.799 151C434.002 151 436.599 153.397 436.599 156.353C436.599 159.31 434.002 161.706 430.799 161.706Z" fill="#F7F8F9"/>
<path d="M408.799 201.922C405.596 201.922 403 199.925 403 197.461C403 194.997 405.596 193 408.799 193C412.002 193 414.599 194.997 414.599 197.461C414.599 199.925 412.002 201.922 408.799 201.922Z" fill="#F7F8F9"/>
<path d="M145.138 146.275C141.196 146.275 138 143.08 138 139.138C138 135.196 141.196 132 145.138 132C149.08 132 152.275 135.196 152.275 139.138C152.275 143.08 149.08 146.275 145.138 146.275Z" fill="#F7F8F9"/>
<path d="M160.476 190.06C155.795 190.06 152 186.465 152 182.03C152 177.595 155.795 174 160.476 174C165.157 174 168.952 177.595 168.952 182.03C168.952 186.465 165.157 190.06 160.476 190.06Z" fill="#4D7DFF"/>
<path d="M231.583 101C227.395 101 224 104.196 224 108.138C224 112.08 227.395 115.275 231.583 115.275C235.772 115.275 239.167 112.08 239.167 108.138C239.167 104.196 235.772 101 231.583 101Z" fill="#4D7DFF"/>
<path d="M195.247 159.344H195.324C195.778 165.943 200.572 166.045 200.572 166.045C200.572 166.045 195.286 166.15 195.286 173.776C195.286 166.15 190 166.045 190 166.045C190 166.045 194.792 165.943 195.247 159.344Z" fill="#F7F8F9"/>
<defs>
<clipPath id="clip0_312_678">
<rect width="171" height="138" fill="white" transform="translate(232 71)"/>
</clipPath>
<clipPath id="clip1_312_678">
<rect width="120.805" height="97.2708" fill="white" transform="translate(246.891 90.4062)"/>
</clipPath>
</defs>
</svg>
